<?xml version="1.0" encoding="UTF-8" standalone="no"?>
<!-- Created with Inkscape (http://www.inkscape.org/) -->

<svg
   xmlns:dc="http://purl.org/dc/elements/1.1/"
   xmlns:cc="http://creativecommons.org/ns#"
   xmlns:rdf="http://www.w3.org/1999/02/22-rdf-syntax-ns#"
   xmlns:svg="http://www.w3.org/2000/svg"
   xmlns="http://www.w3.org/2000/svg"
   xmlns:sodipodi="http://sodipodi.sourceforge.net/DTD/sodipodi-0.dtd"
   xmlns:inkscape="http://www.inkscape.org/namespaces/inkscape"
   width="139.04008mm"
   height="17.933331mm"
   viewBox="0 0 139.04008 17.933331"
   version="1.1"
   id="svg36"
   inkscape:version="0.92.0 r15299"
   sodipodi:docname="swisher2020.svg">
  <defs
     id="defs30" />
  <sodipodi:namedview
     id="base"
     pagecolor="#ffffff"
     bordercolor="#666666"
     borderopacity="1.0"
     inkscape:pageopacity="0.0"
     inkscape:pageshadow="2"
     inkscape:zoom="0.35"
     inkscape:cx="260.86316"
     inkscape:cy="32"
     inkscape:document-units="mm"
     inkscape:current-layer="layer1"
     showgrid="false"
     fit-margin-top="0"
     fit-margin-left="0"
     fit-margin-right="0"
     fit-margin-bottom="0"
     inkscape:window-width="1280"
     inkscape:window-height="744"
     inkscape:window-x="-4"
     inkscape:window-y="-4"
     inkscape:window-maximized="1" />
  <metadata
     id="metadata33">
    <rdf:RDF>
      <cc:Work
         rdf:about="">
        <dc:format>image/svg+xml</dc:format>
        <dc:type
           rdf:resource="http://purl.org/dc/dcmitype/StillImage" />
        <dc:title></dc:title>
      </cc:Work>
    </rdf:RDF>
  </metadata>
  <g
     inkscape:label="Layer 1"
     inkscape:groupmode="layer"
     id="layer1"
     transform="translate(56.546831,-139.36667)">
    <path
       id="path10"
       style="fill:#000000;stroke-width:0.26421177"
       d="m -3.4026343,142.69109 h 4.533876 v 13.59105 h -4.533876 z m 40.4085493,5.13099 h -8.832598 v -5.13099 h -4.668624 v 13.59105 h 4.668624 v -5.25517 h 8.832598 v 5.25517 h 4.668623 v -13.59105 h -4.668623 z m 7.149571,8.45478 h 16.46568 v -2.8482 h -11.73629 v -2.56022 h 10.20914 v -2.85877 h -10.20914 v -2.45981 h 11.73629 v -2.85877 h -16.46568 z m 37.83777,0 z m 0,0 h -5.40577 c -1.37391,-2.04236 -3.72011,-4.4916 -8.65558,-4.4916 h -0.32234 v 4.4916 h -4.67655 v -13.58577 h 10.68473 c 3.92882,0 5.17326,0.52842 6.09536,1.48751 0.70809,0.74244 1.05685,1.80985 1.05685,3.17054 0,1.36069 -0.79264,3.7888 -4.04508,4.27495 2.0952,0.92474 4.06093,2.77422 5.26838,4.65805 z m -5.86286,-9.05982 c 0,-1.6249 -1.9446,-1.65397 -2.96974,-1.65397 h -5.55638 v 3.43476 h 5.54845 c 1.01458,0.003 2.97767,-0.14796 2.97767,-1.78079 z m -62.005222,0.77678 -2.47302,-0.14796 c -2.5179383,-0.1506 -3.1494033,-0.48086 -2.9803083,-1.33955 0.169095,-0.85869 1.7622913,-1.3924 3.9499633,-1.28936 1.889115,0.0872 3.183753,0.67374 3.749167,1.75965 l 4.79016,-0.98022 c -1.138754,-1.97102 -4.430832,-3.56686 -8.903938,-3.56686 -5.0517293,0 -8.9382833,1.96574 -8.9382833,4.68183 0,3.07543 4.539157,3.47439 7.1337173,3.61442 l 2.779508,0.14796 c 2.520579,0.13475 3.601206,0.42802 3.373985,1.46109 -0.39632,1.794 -6.153493,2.30128 -8.4177873,-0.33819 l -5.165341,1.05685 c 1.352764,2.06877 4.806013,3.67782 9.6225903,3.67782 4.039802,0 9.120593,-1.34483 9.120593,-4.93547 -0.0079,-3.29208 -5.437479,-3.66726 -7.641006,-3.80201 z m -37.240651,8.28832 3.794082,-9.54597 3.799367,9.54069 h 5.183833 l 5.6462057,-13.59105 h -4.673904 l -3.6751877,9.9872 -3.902408,-9.98192 h -4.650129 l -3.989596,9.9872 -3.651406,-9.9872 h -4.990962 l 5.448048,13.59105 z M -35.86898,148.369 c -0.570697,-0.39896 -2.496801,-1.53507 -7.181276,-1.76758 l -2.716097,-0.16116 c -1.886472,-0.11362 -4.592001,-0.17703 -5.646206,-1.09913 2.224663,-0.1321 5.123067,-1.05684 6.557737,-3.35813 1.58527,2.52322 4.935476,3.40041 7.207697,3.37399 a 21.726135,21.726135 0 0 0 2.982951,-0.36197 c -0.628824,-1.6936 -3.609133,-5.12835 -10.269912,-5.12835 -4.158693,0 -7.987122,1.21009 -9.720351,3.47702 -1.635471,2.14276 -0.491434,4.93548 3.170541,5.9157 a 21.271691,21.271691 0 0 0 4.518022,0.61033 l 3.054288,0.15589 c 1.424101,0.074 3.358131,0.251 4.399126,1.00136 a 9.7177095,9.7177095 0 0 1 -5.342362,2.92483 9.6965725,9.6965725 0 0 1 -6.039882,-3.76766 l -5.15213,1.04363 c 1.167817,3.1177 5.994966,5.57223 11.192012,5.57223 2.65797,0 6.224829,-0.61826 8.576314,-2.45453 2.179747,-1.70416 2.861414,-4.26438 0.409528,-5.97647 z"
       inkscape:connector-curvature="0" />
  </g>
</svg>
