<svg xmlns="http://www.w3.org/2000/svg" version="1.1" xmlns:xlink="http://www.w3.org/1999/xlink" xmlns:svgjs="http://svgjs.dev/svgjs" width="1440" height="560" preserveAspectRatio="none" viewBox="0 0 1440 560"><g mask="url(&quot;#SvgjsMask1010&quot;)" fill="none"><rect width="1440" height="560" x="0" y="0" fill="rgba(26, 26, 26, 1)"></rect><path d="M-62.63476147193758-1.8620393066015026L-7.9393115231351175 156.98508139408366 150.90780917755006 102.2896314452812 96.21235922874759-56.557489255403965z" fill="rgba(213, 56, 17, 0.4)" class="triangle-float2"></path><path d="M57.951,132.771C86.676,133.023,117.828,125.681,131.578,100.46C144.944,75.943,131.533,47.713,117.48,23.583C103.555,-0.328,85.62,-25.682,57.951,-25.961C29.969,-26.243,10.18,-1.941,-3.69,22.363C-17.404,46.393,-26.957,75.028,-13.47,99.186C0.275,123.806,29.755,132.523,57.951,132.771" fill="rgba(213, 56, 17, 0.4)" class="triangle-float1"></path><path d="M-71.4957043532143 21.83762898011912L12.504295646785778 167.32989681590476 157.9965634825714 83.32989681590469 73.99656348257135-62.16237101988095z" fill="rgba(213, 56, 17, 0.4)" class="triangle-float3"></path><path d="M1468.11547704622 0.9593294901331149L1376.3704480858528-63.28123138118402 1325.8821212590606 106.4565924950252z" fill="rgba(213, 56, 17, 0.4)" class="triangle-float2"></path><path d="M1508.802084688236 98.97280395427504L1435.1557320276709-52.02459582398501 1284.158332249411 21.621756836579962 1357.804684909976 172.61915661484z" fill="rgba(213, 56, 17, 0.4)" class="triangle-float1"></path><path d="M1290.6808817854035 57.628891267479744L1460.2841858391569 148.01600520061263 1457.3521815576933-19.958407585661092z" fill="rgba(213, 56, 17, 0.4)" class="triangle-float1"></path><path d="M93.503,664.123C133.869,662.753,161.105,627.147,180.178,591.545C197.942,558.387,206.462,519.704,188.613,486.591C169.916,451.904,132.903,431.362,93.503,430.742C52.972,430.104,13.491,448.502,-6.942,483.511C-27.531,518.786,-23.851,562.101,-4,597.796C16.476,634.615,51.397,665.552,93.503,664.123" fill="rgba(213, 56, 17, 0.4)" class="triangle-float1"></path><path d="M167.93663778538263 573.9457743078613L130.14486065561334 410.25160342394173-33.54931022830618 448.043380553711 4.242466901463104 611.7375514376305z" fill="rgba(213, 56, 17, 0.4)" class="triangle-float3"></path><path d="M-74.70871643193851 485.6300878897772L26.3962074576056 619.8008535777224 160.56697314555078 518.6959296881782 59.46204925600668 384.5251640002331z" fill="rgba(213, 56, 17, 0.4)" class="triangle-float3"></path><path d="M1363.163,535.45C1383.566,534.876,1404.904,530.801,1415.973,513.652C1427.9,495.174,1427.329,471.497,1416.964,452.1C1405.943,431.477,1386.545,414.671,1363.163,414.828C1339.994,414.984,1322.088,432.695,1310.598,452.815C1299.222,472.736,1292.632,497.419,1304.944,516.775C1316.667,535.205,1341.329,536.064,1363.163,535.45" fill="rgba(213, 56, 17, 0.4)" class="triangle-float3"></path><path d="M1277.2152048073654 581.5836950517913L1443.1468460273486 607.8646851785501 1303.496194934124 415.6520538318082z" fill="rgba(213, 56, 17, 0.4)" class="triangle-float2"></path><path d="M1307.5458091996938 557.5338007260976L1498.6971533663423 537.6271502194278 1402.3363120593665 400.0096067788772z" fill="rgba(213, 56, 17, 0.4)" class="triangle-float2"></path></g><defs><mask id="SvgjsMask1010"><rect width="1440" height="560" fill="#ffffff"></rect></mask><style>
                @keyframes float1 {
                    0%{transform: translate(0, 0)}
                    50%{transform: translate(-10px, 0)}
                    100%{transform: translate(0, 0)}
                }

                .triangle-float1 {
                    animation: float1 5s infinite;
                }

                @keyframes float2 {
                    0%{transform: translate(0, 0)}
                    50%{transform: translate(-5px, -5px)}
                    100%{transform: translate(0, 0)}
                }

                .triangle-float2 {
                    animation: float2 4s infinite;
                }

                @keyframes float3 {
                    0%{transform: translate(0, 0)}
                    50%{transform: translate(0, -10px)}
                    100%{transform: translate(0, 0)}
                }

                .triangle-float3 {
                    animation: float3 6s infinite;
                }
            </style></defs></svg>